<svg width="7" height="5" viewBox="0 0 7 5" fill="none" xmlns="http://www.w3.org/2000/svg">
<path d="M3.65579 4.21051L6.20264 1.40207C6.25515 1.31113 6.28293 1.20804 6.28322 1.10303C6.28352 0.998021 6.25631 0.894768 6.20431 0.803539C6.15231 0.712311 6.07733 0.636289 5.98683 0.583036C5.89633 0.529782 5.79346 0.501154 5.68846 0.5L0.594771 0.5C0.48977 0.501154 0.386901 0.529782 0.296399 0.583035C0.205897 0.636288 0.130915 0.712311 0.0789154 0.803539C0.0269154 0.894767 -0.000291041 0.998021 2.68116e-06 1.10303C0.000296881 1.20803 0.0280812 1.31113 0.080591 1.40207L2.62743 4.21051C2.68104 4.29888 2.75651 4.37195 2.84658 4.42265C2.93664 4.47336 3.03826 4.5 3.14161 4.5C3.24497 4.5 3.34658 4.47336 3.43665 4.42265C3.52671 4.37195 3.60219 4.29888 3.65579 4.21051Z" fill="#222222" fill-opacity="0.5"/>
</svg>
