<svg width="24" height="24" viewBox="0 0 24 24" fill="none" xmlns="http://www.w3.org/2000/svg">
<g clip-path="url(#clip0_2383_14951)">
<path d="M12.0001 0.75C9.88135 0.751693 7.80618 1.35165 6.01343 2.4808H17.9703C16.1823 1.35461 14.1132 0.754774 12.0001 0.75Z" fill="#B22234"/>
<path d="M6.01318 2.48047C5.2409 2.96936 4.53108 3.55055 3.89941 4.21118H20.1135C19.4726 3.54864 18.7527 2.96738 17.9701 2.48047H6.01318Z" fill="white"/>
<path d="M3.89981 4.21191C3.3892 4.74277 2.93196 5.32249 2.53467 5.94272H21.4787C21.0815 5.3225 20.6244 4.74278 20.1139 4.21191H3.89981Z" fill="#B22234"/>
<path d="M2.53448 5.94238C2.1794 6.49156 1.87288 7.07066 1.61841 7.6731H22.3734C22.1257 7.0714 21.8263 6.49232 21.4785 5.94238H2.53448Z" fill="white"/>
<path d="M1.61838 7.67285C1.38803 8.23396 1.20344 8.81278 1.06641 9.40366H22.9328C22.7933 8.81257 22.6063 8.23374 22.3734 7.67285H1.61838Z" fill="#B22234"/>
<path d="M1.06656 9.4043C0.930665 9.97325 0.839355 10.5519 0.793457 11.1351H23.2135C23.1652 10.5517 23.0713 9.97305 22.9329 9.4043H1.06656Z" fill="white"/>
<path d="M0.793304 11.1348C0.767763 11.4226 0.753317 11.7112 0.75 12.0001C0.751095 12.2889 0.763311 12.5776 0.786621 12.8655H23.2067C23.2322 12.5777 23.2467 12.289 23.25 12.0001C23.2489 11.7113 23.2367 11.4226 23.2134 11.1348H0.793304Z" fill="#B22234"/>
<path d="M0.786621 12.8652C0.834987 13.4486 0.928808 14.0273 1.06723 14.596H22.9336C23.0695 14.0271 23.1608 13.4484 23.2067 12.8652H0.786621Z" fill="white"/>
<path d="M1.06738 14.5957C1.20682 15.1868 1.3939 15.7656 1.62677 16.3265H22.3818C22.6121 15.7654 22.7967 15.1866 22.9337 14.5957H1.06738Z" fill="#B22234"/>
<path d="M1.62659 16.3271C1.87428 16.9288 2.17372 17.5079 2.52151 18.0579H21.4655C21.8206 17.5087 22.1271 16.9296 22.3816 16.3271H1.62659Z" fill="white"/>
<path d="M2.52148 18.0576C2.91866 18.6778 3.37578 19.2576 3.88626 19.7884H20.1003C20.611 19.2576 21.0682 18.6779 21.4655 18.0576H2.52148Z" fill="#B22234"/>
<path d="M3.88623 19.7881C4.52711 20.4506 5.24698 21.0319 6.02966 21.5188H17.9865C18.7588 21.0299 19.4686 20.4487 20.1003 19.7881H3.88623Z" fill="white"/>
<path d="M6.02979 21.5195C7.81782 22.6457 9.88689 23.2456 12 23.2503C14.1187 23.2486 16.1939 22.6487 17.9867 21.5195H6.02979Z" fill="#B22234"/>
<path d="M12 0.75C9.01631 0.75 6.15483 1.93526 4.04505 4.04505C1.93526 6.15483 0.75 9.01631 0.75 12C0.751472 12.2973 0.764727 12.5944 0.789734 12.8906H12.8906V0.794586C12.5945 0.767959 12.2973 0.753086 12 0.75Z" fill="#3C3B6E"/>
<path d="M7.97396 1.50847C7.82406 1.56319 7.67534 1.62109 7.52791 1.68214L7.69225 1.80702L7.5811 2.16618L7.87554 1.94636L8.17858 2.17671L8.06478 1.805L8.36782 1.57878H7.99547L7.97396 1.50847ZM9.88225 1.20117L9.76536 1.57875H9.39431L9.69466 1.80704L9.58349 2.16616L9.87791 1.94635L10.181 2.17669L10.0672 1.80505L10.3702 1.57875H9.99788L9.88225 1.20117ZM11.8846 1.20117L11.7677 1.57875H11.3967L11.697 1.80704L11.5859 2.16616L11.8803 1.94635L12.1834 2.17669L12.0695 1.80505L12.3726 1.57875H12.0003L11.8846 1.20117ZM5.07943 3.14726C5.02652 3.18671 4.97397 3.22663 4.92177 3.26701L5.17501 3.45955L5.07943 3.14726ZM6.87867 2.484L6.76178 2.86158H6.39073L6.69108 3.08987L6.57991 3.44899L6.87433 3.22918L7.1774 3.45952L7.06359 3.08788L7.36661 2.86158H6.9943L6.87867 2.484ZM8.88106 2.484L8.76417 2.86158H8.39311L8.69347 3.08987L8.5823 3.44899L8.87672 3.22918L9.17978 3.45952L9.06598 3.08788L9.369 2.86158H8.99669L8.88106 2.484ZM10.8834 2.484L10.7666 2.86158H10.3955L10.6959 3.08987L10.5847 3.44899L10.8791 3.22918L11.1822 3.45952L11.0684 3.08788L11.3714 2.86158H10.9991L10.8834 2.484ZM3.98143 4.11415C3.87047 4.23161 3.76204 4.35145 3.65624 4.47358L3.57631 4.73176L3.87075 4.51194L4.17379 4.74229L4.05999 4.37068L4.36302 4.14436H3.99068L3.98143 4.11415ZM5.87748 3.76678L5.76059 4.14436H5.38954L5.68989 4.37265L5.57872 4.73176L5.87313 4.51196L6.1762 4.7423L6.06239 4.37066L6.36542 4.14436H5.9931L5.87748 3.76678ZM7.87986 3.76678L7.76297 4.14436H7.39192L7.69228 4.37265L7.5811 4.73176L7.87552 4.51196L8.17858 4.7423L8.06478 4.37066L8.36781 4.14436H7.99549L7.87986 3.76678ZM9.88225 3.76678L9.76536 4.14436H9.39431L9.69466 4.37265L9.58349 4.73176L9.87791 4.51196L10.181 4.7423L10.0672 4.37066L10.3702 4.14436H9.99788L9.88225 3.76678ZM11.8846 3.76678L11.7677 4.14436H11.3967L11.697 4.37265L11.5859 4.73176L11.8803 4.51196L12.1834 4.7423L12.0695 4.37066L12.3726 4.14436H12.0003L11.8846 3.76678ZM2.95888 5.32704C2.85523 5.46518 2.75477 5.60569 2.65758 5.74846L2.57518 6.0146L2.86952 5.79478L3.17266 6.02513L3.05886 5.65352L3.3618 5.4272H2.98955L2.95888 5.32704ZM4.87629 5.04961L4.75939 5.42718H4.38834L4.6887 5.65548L4.57752 6.01459L4.87194 5.79479L5.17501 6.02513L5.0612 5.65348L5.36423 5.42718H4.99191L4.87629 5.04961ZM6.87867 5.04961L6.76178 5.42718H6.39073L6.69108 5.65548L6.57991 6.01459L6.87433 5.79479L7.1774 6.02513L7.06359 5.65348L7.36661 5.42718H6.9943L6.87867 5.04961ZM8.88106 5.04961L8.76417 5.42718H8.39311L8.69347 5.65548L8.5823 6.01459L8.87672 5.79479L9.17978 6.02513L9.06598 5.65348L9.369 5.42718H8.99669L8.88106 5.04961ZM10.8834 5.04961L10.7666 5.42718H10.3955L10.6959 5.65548L10.5847 6.01459L10.8791 5.79479L11.1822 6.02513L11.0684 5.65348L11.3714 5.42718H10.9991L10.8834 5.04961ZM2.08144 6.71003C2.0142 6.83605 1.94937 6.96333 1.88698 7.09181L2.17144 7.30797L2.05764 6.93635L2.36067 6.71003H2.08144ZM3.8751 6.33244L3.75821 6.71001H3.38715L3.68751 6.93831L3.57634 7.29742L3.87075 7.07762L4.17382 7.30796L4.06001 6.93631L4.36304 6.71001H3.99072L3.8751 6.33244ZM5.87748 6.33244L5.76059 6.71001H5.38954L5.68989 6.93831L5.57872 7.29742L5.87313 7.07762L6.1762 7.30796L6.06239 6.93631L6.36542 6.71001H5.9931L5.87748 6.33244ZM7.87986 6.33244L7.76297 6.71001H7.39192L7.69228 6.93831L7.5811 7.29742L7.87552 7.07762L8.17858 7.30796L8.06478 6.93631L8.36781 6.71001H7.99549L7.87986 6.33244ZM9.88225 6.33244L9.76536 6.71001H9.39431L9.69466 6.93831L9.58349 7.29742L9.87791 7.07762L10.181 7.30796L10.0672 6.93631L10.3702 6.71001H9.99788L9.88225 6.33244ZM11.8846 6.33244L11.7677 6.71001H11.3967L11.697 6.93831L11.5859 7.29742L11.8803 7.07762L12.1834 7.30796L12.0695 6.93631L12.3726 6.71001H12.0003L11.8846 6.33244ZM2.8739 7.61522L2.75701 7.99279H2.38596L2.68632 8.22109L2.57515 8.5802L2.86956 8.3604L3.17262 8.59074L3.05882 8.21909L3.36185 7.99279H2.98953L2.8739 7.61522ZM4.87629 7.61522L4.75939 7.99279H4.38834L4.6887 8.22109L4.57752 8.5802L4.87194 8.3604L5.17501 8.59074L5.0612 8.21909L5.36423 7.99279H4.99191L4.87629 7.61522ZM6.87867 7.61522L6.76178 7.99279H6.39073L6.69108 8.22109L6.57991 8.5802L6.87433 8.3604L7.1774 8.59074L7.06359 8.21909L7.36661 7.99279H6.9943L6.87867 7.61522ZM8.88106 7.61522L8.76417 7.99279H8.39311L8.69347 8.22109L8.5823 8.5802L8.87672 8.3604L9.17978 8.59074L9.06598 8.21909L9.369 7.99279H8.99669L8.88106 7.61522ZM10.8834 7.61522L10.7666 7.99279H10.3955L10.6959 8.22109L10.5847 8.5802L10.8791 8.3604L11.1822 8.59074L11.0684 8.21909L11.3714 7.99279H10.9991L10.8834 7.61522ZM1.87271 8.89804L1.75582 9.27562H1.38477L1.68512 9.50392L1.57395 9.86303L1.86837 9.64322L2.17143 9.87357L2.05763 9.50192L2.36065 9.27562H1.98834L1.87271 8.89804ZM3.8751 8.89804L3.75821 9.27562H3.38715L3.68751 9.50392L3.57634 9.86303L3.87075 9.64322L4.17382 9.87357L4.06001 9.50192L4.36304 9.27562H3.99072L3.8751 8.89804ZM5.87748 8.89804L5.76059 9.27562H5.38954L5.68989 9.50392L5.57872 9.86303L5.87313 9.64322L6.1762 9.87357L6.06239 9.50192L6.36542 9.27562H5.9931L5.87748 8.89804ZM7.87986 8.89804L7.76297 9.27562H7.39192L7.69228 9.50392L7.5811 9.86303L7.87552 9.64322L8.17858 9.87357L8.06478 9.50192L8.36781 9.27562H7.99549L7.87986 8.89804ZM9.88225 8.89804L9.76536 9.27562H9.39431L9.69466 9.50392L9.58349 9.86303L9.87791 9.64322L10.181 9.87357L10.0672 9.50192L10.3702 9.27562H9.99788L9.88225 8.89804ZM11.8846 8.89804L11.7677 9.27562H11.3967L11.697 9.50392L11.5859 9.86303L11.8803 9.64322L12.1834 9.87357L12.0695 9.50192L12.3726 9.27562H12.0003L11.8846 8.89804ZM2.8739 10.1809L2.75701 10.5584H2.38596L2.68632 10.7867L2.57515 11.1459L2.86956 10.9261L3.17262 11.1564L3.05882 10.7847L3.36185 10.5584H2.98953L2.8739 10.1809ZM4.87629 10.1809L4.75939 10.5584H4.38834L4.6887 10.7867L4.57752 11.1459L4.87194 10.9261L5.17501 11.1564L5.0612 10.7847L5.36423 10.5584H4.99191L4.87629 10.1809ZM6.87867 10.1809L6.76178 10.5584H6.39073L6.69108 10.7867L6.57991 11.1459L6.87433 10.9261L7.1774 11.1564L7.06359 10.7847L7.36661 10.5584H6.9943L6.87867 10.1809ZM8.88106 10.1809L8.76417 10.5584H8.39311L8.69347 10.7867L8.5823 11.1459L8.87672 10.9261L9.17978 11.1564L9.06598 10.7847L9.369 10.5584H8.99669L8.88106 10.1809ZM10.8834 10.1809L10.7666 10.5584H10.3955L10.6959 10.7867L10.5847 11.1459L10.8791 10.9261L11.1822 11.1564L11.0684 10.7847L11.3714 10.5584H10.9991L10.8834 10.1809ZM1.87271 11.4637L1.75582 11.8412H1.38477L1.68512 12.0695L1.57395 12.4286L1.86837 12.2088L2.17143 12.4392L2.05763 12.0675L2.36065 11.8412H1.98834L1.87271 11.4637ZM3.8751 11.4637L3.75821 11.8412H3.38715L3.68751 12.0695L3.57634 12.4286L3.87075 12.2088L4.17382 12.4392L4.06001 12.0675L4.36304 11.8412H3.99072L3.8751 11.4637ZM5.87748 11.4637L5.76059 11.8412H5.38954L5.68989 12.0695L5.57872 12.4286L5.87313 12.2088L6.1762 12.4392L6.06239 12.0675L6.36542 11.8412H5.9931L5.87748 11.4637ZM7.87986 11.4637L7.76297 11.8412H7.39192L7.69228 12.0695L7.5811 12.4286L7.87552 12.2088L8.17858 12.4392L8.06478 12.0675L8.36781 11.8412H7.99549L7.87986 11.4637ZM9.88225 11.4637L9.76536 11.8412H9.39431L9.69466 12.0695L9.58349 12.4286L9.87791 12.2088L10.181 12.4392L10.0672 12.0675L10.3702 11.8412H9.99788L9.88225 11.4637ZM11.8846 11.4637L11.7677 11.8412H11.3967L11.697 12.0695L11.5859 12.4286L11.8803 12.2088L12.1834 12.4392L12.0695 12.0675L12.3726 11.8412H12.0003L11.8846 11.4637Z" fill="white"/>
</g>
<defs>
<clipPath id="clip0_2383_14951">
<rect width="24" height="24" fill="white"/>
</clipPath>
</defs>
</svg>
