<svg width="7" height="5" viewBox="0 0 7 5" fill="none" xmlns="http://www.w3.org/2000/svg">
<path d="M2.62746 0.789487L0.0806134 3.59793C0.0281034 3.68887 0.000319266 3.79196 2.52462e-05 3.89697C-0.000268774 4.00198 0.0269376 4.10523 0.0789375 4.19646C0.130938 4.28769 0.205919 4.36371 0.296421 4.41696C0.386923 4.47022 0.489792 4.49885 0.594793 4.5H5.68848C5.79348 4.49885 5.89635 4.47022 5.98685 4.41696C6.07735 4.36371 6.15233 4.28769 6.20433 4.19646C6.25633 4.10523 6.28354 4.00198 6.28325 3.89697C6.28295 3.79196 6.25517 3.68887 6.20266 3.59793L3.65582 0.789487C3.60221 0.701116 3.52674 0.628053 3.43667 0.577346C3.34661 0.526639 3.24499 0.5 3.14164 0.5C3.03828 0.5 2.93666 0.526639 2.8466 0.577346C2.75654 0.628053 2.68106 0.701116 2.62746 0.789487Z" fill="#222222" fill-opacity="0.5"/>
</svg>
