<svg width="18" height="20" viewBox="0 0 18 20" fill="none" xmlns="http://www.w3.org/2000/svg">
<path d="M6.83569 2.72652C7.49266 0.424493 10.7551 0.424493 11.4121 2.72652C11.7645 3.9614 13.0332 4.69387 14.2788 4.38164C16.6009 3.79957 18.2321 6.62492 16.567 8.34488C15.6738 9.26752 15.6738 10.7325 16.567 11.6551C18.2321 13.3751 16.6009 16.2004 14.2788 15.6184C13.0332 15.3061 11.7645 16.0386 11.4121 17.2735C10.7551 19.5755 7.49266 19.5755 6.83569 17.2735C6.48327 16.0386 5.21459 15.3061 3.96895 15.6184C1.64685 16.2004 0.0156345 13.3751 1.68077 11.6551C2.57399 10.7325 2.57399 9.26753 1.68077 8.34489C0.0156349 6.62492 1.64685 3.79957 3.96895 4.38164C5.21459 4.69387 6.48327 3.9614 6.83569 2.72652Z" fill="#63C054"/>
<path d="M12.3431 7.58558L9.55561 10.9306C8.98255 11.6182 8.69602 11.9621 8.31907 11.9621C7.94212 11.9621 7.65559 11.6182 7.08253 10.9306L5.90465 9.51712M3.96895 4.38164C5.21459 4.69387 6.48327 3.9614 6.83569 2.72652C7.49266 0.424493 10.7551 0.424493 11.4121 2.72652C11.7645 3.9614 13.0332 4.69387 14.2788 4.38164C16.6009 3.79957 18.2321 6.62492 16.567 8.34488C15.6738 9.26752 15.6738 10.7325 16.567 11.6551C18.2321 13.3751 16.6009 16.2004 14.2788 15.6184C13.0332 15.3061 11.7645 16.0386 11.4121 17.2735C10.7551 19.5755 7.49266 19.5755 6.83569 17.2735C6.48327 16.0386 5.21459 15.3061 3.96895 15.6184C1.64685 16.2004 0.0156345 13.3751 1.68077 11.6551C2.57399 10.7325 2.57399 9.26753 1.68077 8.34489C0.0156349 6.62492 1.64685 3.79957 3.96895 4.38164Z" stroke="white" stroke-linecap="round"/>
</svg>
