<svg width="71" height="70" viewBox="0 0 71 70" fill="none" xmlns="http://www.w3.org/2000/svg">
<path d="M36.9649 7.34473L36.8774 7.54889L28.4191 27.1781H20.1066C18.1233 27.1781 16.2274 27.5864 14.5066 28.3156L19.6108 16.1239L19.7274 15.8322L19.9316 15.3656C19.9899 15.1906 20.0483 15.0156 20.1358 14.8697C23.9566 6.03223 28.2733 4.01973 36.9649 7.34473Z" stroke="#222222" stroke-width="3" stroke-linecap="round" stroke-linejoin="round"/>
<path d="M52.6859 27.7609C51.3734 27.3526 49.9734 27.1776 48.5734 27.1776H28.4192L36.8775 7.5484L36.965 7.34424C37.4025 7.49007 37.8109 7.69424 38.2484 7.86924L44.6942 10.5817C48.2817 12.0692 50.79 13.6151 52.3067 15.4817C52.5984 15.8317 52.8317 16.1526 53.0359 16.5317C53.2984 16.9401 53.5025 17.3484 53.6192 17.7859C53.7359 18.0484 53.8234 18.3109 53.8817 18.5442C54.6692 20.9942 54.2025 23.9984 52.6859 27.7609Z" stroke="#222222" stroke-width="3" stroke-linecap="round" stroke-linejoin="round"/>
<path d="M62.8116 41.412V47.0995C62.8116 47.6829 62.7825 48.2662 62.7533 48.8495C62.1991 59.0287 56.5116 64.162 45.72 64.162H22.97C22.27 64.162 21.57 64.1037 20.8991 64.0162C11.6241 63.4037 6.6658 58.4454 6.0533 49.1704C5.9658 48.4995 5.90747 47.7995 5.90747 47.0995V41.412C5.90747 35.5495 9.4658 30.5037 14.5408 28.3162C16.2908 27.587 18.1575 27.1787 20.1408 27.1787H48.6075C50.0366 27.1787 51.4366 27.3829 52.72 27.762C58.5241 29.5412 62.8116 34.9662 62.8116 41.412Z" stroke="#222222" stroke-width="3" stroke-linecap="round" stroke-linejoin="round"/>
<path d="M19.6108 16.124L14.5066 28.3157C9.43162 30.5032 5.87329 35.549 5.87329 41.4115V32.8657C5.87329 24.5824 11.765 17.6699 19.6108 16.124Z" stroke="#222222" stroke-width="3" stroke-linecap="round" stroke-linejoin="round"/>
<path d="M62.8026 32.8638V41.4097C62.8026 34.993 58.5443 29.5388 52.7109 27.7888C54.2276 23.9972 54.6651 21.0222 53.9359 18.543C53.8776 18.2805 53.7901 18.018 53.6734 17.7847C59.0984 20.5847 62.8026 26.3305 62.8026 32.8638Z" stroke="#222222" stroke-width="3" stroke-linecap="round" stroke-linejoin="round"/>
</svg>
