<svg width="20" height="21" viewBox="0 0 20 21" fill="none" xmlns="http://www.w3.org/2000/svg">
<path d="M11.8847 13.3652H7.71802" stroke="#63C054" stroke-width="1.5" stroke-miterlimit="10" stroke-linecap="round" stroke-linejoin="round"/>
<path d="M9.80151 11.3315V15.4982" stroke="#63C054" stroke-width="1.5" stroke-miterlimit="10" stroke-linecap="round" stroke-linejoin="round"/>
<path d="M10.55 2.59828L10.525 2.65662L8.1083 8.26495H5.7333C5.16663 8.26495 4.62497 8.38162 4.1333 8.58995L5.59163 5.10662L5.62497 5.02328L5.6833 4.88995C5.69997 4.83995 5.71663 4.78995 5.74163 4.74828C6.8333 2.22328 8.06663 1.64828 10.55 2.59828Z" stroke="#63C054" stroke-width="1.5" stroke-linecap="round" stroke-linejoin="round"/>
<path d="M15.0417 8.43197C14.6667 8.3153 14.2667 8.2653 13.8667 8.2653H8.1084L10.5251 2.65697L10.5501 2.59863C10.6751 2.6403 10.7917 2.69863 10.9167 2.74863L12.7584 3.52363C13.7834 3.94863 14.5001 4.3903 14.9334 4.92363C15.0167 5.02363 15.0834 5.1153 15.1417 5.22363C15.2167 5.3403 15.2751 5.45697 15.3084 5.58197C15.3417 5.65697 15.3667 5.73197 15.3834 5.79863C15.6084 6.49863 15.4751 7.35697 15.0417 8.43197Z" stroke="#63C054" stroke-width="1.5" stroke-linecap="round" stroke-linejoin="round"/>
<path d="M17.9348 12.3318V13.9568C17.9348 14.1235 17.9265 14.2901 17.9182 14.4568C17.7598 17.3651 16.1348 18.8318 13.0515 18.8318H6.55151C6.35151 18.8318 6.15151 18.8151 5.95985 18.7901C3.30985 18.6151 1.89318 17.1985 1.71818 14.5485C1.69318 14.3568 1.67651 14.1568 1.67651 13.9568V12.3318C1.67651 10.6568 2.69318 9.21514 4.14318 8.59014C4.64318 8.3818 5.17651 8.26514 5.74318 8.26514H13.8765C14.2848 8.26514 14.6848 8.32347 15.0515 8.4318C16.7098 8.94014 17.9348 10.4901 17.9348 12.3318Z" stroke="#63C054" stroke-width="1.5" stroke-linecap="round" stroke-linejoin="round"/>
<path d="M5.59175 5.10693L4.13341 8.59027C2.68341 9.21527 1.66675 10.6569 1.66675 12.3319V9.89027C1.66675 7.5236 3.35008 5.5486 5.59175 5.10693Z" stroke="#63C054" stroke-width="1.5" stroke-linecap="round" stroke-linejoin="round"/>
<path d="M17.9322 9.88988V12.3315C17.9322 10.4982 16.7155 8.93988 15.0488 8.43988C15.4822 7.35654 15.6072 6.50654 15.3988 5.79821C15.3822 5.72321 15.3572 5.64821 15.3238 5.58154C16.8738 6.38154 17.9322 8.02321 17.9322 9.88988Z" stroke="#63C054" stroke-width="1.5" stroke-linecap="round" stroke-linejoin="round"/>
</svg>
